<svg width="15" height="15" viewBox="0 0 15 15" fill="none" xmlns="http://www.w3.org/2000/svg">
<path d="M7.15834 0.864274C7.15834 1.02961 7.03134 1.16485 6.85674 1.17997C3.36487 1.31521 0.634857 4.0207 0.634857 7.32738C0.634857 9.25127 1.57129 11.0399 3.17446 12.2122V9.88252C3.17446 9.71718 3.31728 9.58194 3.49187 9.58194C3.66647 9.58194 3.80929 9.71719 3.80929 9.88252V12.8886C3.80929 13.0539 3.66646 13.1892 3.49187 13.1892H0.317443C0.142844 13.1892 2.83275e-05 13.0539 2.83275e-05 12.8886C2.83275e-05 12.7232 0.142852 12.588 0.317443 12.588H2.65065C0.984045 11.3104 0 9.37151 0 7.32738C0 3.69004 2.99983 0.729055 6.82502 0.563721C6.99962 0.563721 7.14244 0.69897 7.15828 0.864301L7.15834 0.864274ZM11.6343 2.06673H13.9675C14.1421 2.06673 14.2849 1.93148 14.2849 1.76615C14.2849 1.60081 14.1421 1.46557 13.9675 1.46557H10.7931C10.6185 1.46557 10.4756 1.60082 10.4756 1.76615V4.77222C10.4756 4.93756 10.6185 5.0728 10.7931 5.0728C10.9677 5.0728 11.1105 4.93755 11.1105 4.77222V2.44249C12.7135 3.61486 13.6501 5.40347 13.6501 7.32736C13.6501 10.619 10.9359 13.3245 7.45993 13.4898C7.28534 13.5048 7.14252 13.6401 7.15834 13.8055C7.17417 13.9708 7.30116 14.0911 7.47575 14.0911H7.49158C11.3009 13.9107 14.2849 10.9498 14.2849 7.32744C14.2849 5.28331 13.3008 3.34439 11.6342 2.06681L11.6343 2.06673Z" fill="white"/>
</svg>
