<svg width="17" height="15" viewBox="0 0 17 15" fill="none" xmlns="http://www.w3.org/2000/svg">
<path d="M1.35102 0.711285C1.14385 0.711285 0.975464 0.551846 0.975464 0.355642C0.975464 0.159452 1.14383 0 1.35102 0H3.77472C3.9416 0 4.08304 0.102689 4.13167 0.245482L5.25247 3.01491H16.6245C16.8317 3.01491 17 3.17435 17 3.37055C17 3.41336 16.9922 3.45465 16.9774 3.49237L14.9946 9.74573C14.946 9.89965 14.7968 9.99953 14.6352 9.99953V9.99997H7.44168C7.2974 9.99997 7.16624 10.0557 7.07103 10.1459C6.97582 10.236 6.91693 10.3602 6.91693 10.4969V10.5066C6.91693 10.6438 6.97583 10.7683 7.07057 10.858L7.0716 10.857C7.1668 10.9472 7.29796 11.003 7.44225 11.003H13.9634C14.1711 11.003 14.339 11.1624 14.339 11.3586C14.339 11.5548 14.1706 11.7143 13.9634 11.7143H7.44225C7.0908 11.7143 6.77164 11.5785 6.54038 11.36L6.5414 11.3591L6.54038 11.3581C6.30968 11.1396 6.16631 10.8378 6.16631 10.506V10.4962C6.16631 10.1634 6.30967 9.8612 6.54038 9.64273C6.77107 9.42427 7.09022 9.2885 7.44225 9.2885H14.357L16.121 3.72584H5.54145L7.35058 8.19683C7.42421 8.38005 7.32707 8.58554 7.13313 8.65525C6.93965 8.72497 6.72265 8.63298 6.64904 8.44933L4.6519 3.51345C4.64699 3.50274 4.64254 3.49204 4.63866 3.48091L3.51785 0.711203H1.35236L1.35102 0.711285ZM12.9571 12.5146C13.4167 12.5146 13.7897 12.8674 13.7897 13.3026C13.7897 13.7382 13.4171 14.091 12.9571 14.091C12.4975 14.091 12.1249 13.7382 12.1249 13.3026C12.1249 12.8674 12.4975 12.5146 12.9571 12.5146ZM7.90872 12.5146C8.36829 12.5146 8.74087 12.8674 8.74087 13.3026C8.74087 13.7382 8.36829 14.091 7.90872 14.091C7.44871 14.091 7.07613 13.7382 7.07613 13.3026C7.07613 12.8674 7.44871 12.5146 7.90872 12.5146Z" fill="white"/>
</svg>
