<svg width="20" height="18" viewBox="0 0 20 18" fill="none" xmlns="http://www.w3.org/2000/svg">
<path d="M18.972 1.9335H4.3693L4.30996 1.73629H4.30982C4.18049 1.31147 3.90908 0.937899 3.53642 0.67146C3.16377 0.405148 2.71007 0.260375 2.24315 0.259033H0.424041C0.189805 0.259033 0 0.438771 0 0.660585C0 0.882264 0.189805 1.062 0.424041 1.062H2.24315C2.52579 1.06294 2.80049 1.15046 3.02621 1.31177C3.25179 1.47309 3.41606 1.69922 3.49441 1.95636L6.06337 10.4926C6.23316 11.0498 6.5892 11.54 7.07811 11.8894C7.56703 12.2387 8.16242 12.4286 8.77486 12.4303H18.1315C18.3658 12.4303 18.5556 12.2506 18.5556 12.0288C18.5556 11.8071 18.3658 11.6274 18.1315 11.6274H8.77486C8.34657 11.6262 7.93034 11.4933 7.58847 11.2491C7.24663 11.0047 6.99776 10.662 6.87907 10.2723L6.70744 9.70217H16.0005C16.9008 9.70123 17.7638 9.36205 18.4004 8.75927C19.0368 8.15646 19.3948 7.33925 19.3958 6.48683V2.33503C19.3958 2.11335 19.206 1.93361 18.9719 1.93361L18.972 1.9335ZM18.5479 6.48692C18.5472 7.12642 18.2785 7.73955 17.8011 8.19179C17.3235 8.64418 16.676 8.8985 16.0005 8.89933H6.46581L5.13223 4.46843H14.2963C14.5305 4.46843 14.7203 4.28869 14.7203 4.06687C14.7203 3.84519 14.5305 3.66546 14.2963 3.66546H4.89056L4.61089 2.73654H18.5481L18.5479 6.48692Z" fill="#1B1A1A"/>
<path d="M8.04718 13.6739C7.5208 13.6739 7.01583 13.8717 6.64361 14.2242C6.27139 14.5767 6.06228 15.0548 6.06213 15.5532C6.06213 16.0517 6.2711 16.5297 6.64332 16.8822C7.01553 17.2347 7.52036 17.4329 8.04674 17.4329C8.57312 17.4329 9.07795 17.235 9.45017 16.8825C9.82253 16.53 10.0316 16.052 10.0316 15.5535C10.0311 15.0553 9.82183 14.5775 9.44974 14.2252C9.07781 13.8728 8.57327 13.6745 8.04714 13.6738L8.04718 13.6739ZM8.04718 16.6299C7.74565 16.6299 7.45648 16.5166 7.24326 16.3147C7.03003 16.1128 6.91021 15.8389 6.91021 15.5534C6.91007 15.2678 7.02989 14.994 7.24311 14.7922C7.45634 14.5903 7.74551 14.4769 8.04704 14.4769C8.34857 14.4769 8.63775 14.5903 8.85082 14.7922C9.06405 14.9942 9.18372 15.268 9.18372 15.5535C9.18344 15.8389 9.06348 16.1125 8.85039 16.3143C8.63731 16.516 8.34844 16.6295 8.04716 16.6299L8.04718 16.6299Z" fill="#1B1A1A"/>
<path d="M16.5708 13.6739C16.0445 13.6739 15.5396 13.8717 15.1674 14.2242C14.7951 14.5766 14.5859 15.0546 14.5859 15.5531C14.5858 16.0517 14.7949 16.5297 15.1671 16.8822C15.5392 17.2347 16.044 17.4329 16.5704 17.4329C17.0968 17.4329 17.6018 17.235 17.974 16.8825C18.3462 16.53 18.5553 16.052 18.5555 15.5535C18.5549 15.0553 18.3455 14.5775 17.9735 14.2252C17.6015 13.8728 17.0971 13.6745 16.5708 13.6738L16.5708 13.6739ZM16.5708 16.6299C16.2693 16.6299 15.9801 16.5166 15.7669 16.3147C15.5537 16.1128 15.4339 15.8389 15.4339 15.5534C15.4339 15.2678 15.5537 14.994 15.7668 14.7922C15.98 14.5903 16.2692 14.4769 16.5707 14.4769C16.8722 14.4769 17.1614 14.5903 17.3746 14.7922C17.5877 14.9942 17.7075 15.268 17.7074 15.5535C17.7071 15.8389 17.5873 16.1125 17.3742 16.3143C17.1611 16.516 16.8722 16.6295 16.5709 16.6299L16.5708 16.6299Z" fill="#1B1A1A"/>
<path d="M15.9854 4.35309C16.0652 4.42622 16.1714 4.46776 16.2823 4.46937C16.3392 4.46924 16.3954 4.45835 16.4476 4.43738C16.4983 4.41788 16.5443 4.38925 16.5834 4.35309C16.6234 4.31518 16.655 4.27014 16.6768 4.22067C16.7453 4.07051 16.708 3.89588 16.5834 3.78281C16.5446 3.74544 16.4985 3.71546 16.4478 3.69462C16.2892 3.63077 16.1055 3.66572 15.9854 3.78281C15.8609 3.89601 15.8237 4.07063 15.8923 4.22067C15.9137 4.27014 15.9454 4.31518 15.9854 4.35309L15.9854 4.35309Z" fill="#1B1A1A"/>
</svg>
