<svg width="17" height="14" viewBox="0 0 17 14" fill="none" xmlns="http://www.w3.org/2000/svg">
<path fill-rule="evenodd" clip-rule="evenodd" d="M8.50018 3.09357C8.91509 2.41442 9.35439 1.87727 9.87945 1.48134C10.589 0.946568 11.4296 0.679199 12.5397 0.679199C13.7709 0.679199 14.886 1.15045 15.693 1.91141C16.5008 2.67224 17 3.72433 17 4.88432C17 7.639 15.1057 8.99907 12.5901 10.8046C11.4195 11.6449 10.1084 12.5858 8.79802 13.8212C8.63389 13.9752 8.3672 13.9752 8.20306 13.8212C6.89282 12.586 5.58157 11.6441 4.41171 10.8039C1.89449 8.99876 0 7.63808 0 4.88422C0 3.72427 0.499851 2.67213 1.30699 1.91131C2.11399 1.15049 3.22911 0.679233 4.46032 0.679233C5.57036 0.679233 6.41104 0.946612 7.12055 1.48137C7.64565 1.87812 8.0849 2.41514 8.49982 3.09361L8.50018 3.09357ZM10.403 2.09857C9.82564 2.5333 9.35439 3.20619 8.87549 4.10901C8.8359 4.18287 8.77278 4.24542 8.68783 4.28514C8.48172 4.38277 8.22924 4.30334 8.12569 4.10901C7.64683 3.20527 7.17472 2.5333 6.59905 2.09857C6.04535 1.68124 5.36953 1.47256 4.46068 1.47256C3.46181 1.47256 2.55617 1.85497 1.90231 2.4722C1.24762 3.08956 0.842014 3.94243 0.842014 4.88419C0.842014 7.24783 2.59407 8.5052 4.92118 10.1748C6.02786 10.9697 7.25904 11.8537 8.50039 12.9843C9.74174 11.8537 10.973 10.9699 12.0805 10.1755C14.4065 8.50541 16.1586 7.24701 16.1586 4.88429C16.1586 3.94257 15.7538 3.08956 15.0983 2.4723C14.4444 1.85507 13.5388 1.47267 12.5399 1.47267C11.6299 1.47267 10.9549 1.68134 10.4029 2.09867L10.403 2.09857Z" fill="white"/>
</svg>
