<svg width="17" height="14" viewBox="0 0 17 14" fill="none" xmlns="http://www.w3.org/2000/svg">
<path d="M6.88289 4.37574C6.86038 4.32509 6.79287 4.09303 6.89111 4.08211C7.11571 4.05716 7.26816 4.11137 7.12314 3.82134C7.02841 3.63189 6.86977 3.46156 6.68372 3.36138C6.56238 3.29605 6.52187 3.15671 6.42089 3.1006C6.23213 2.99574 6.09958 2.87656 5.93013 2.74948C5.83782 2.68025 5.76945 2.56656 5.66319 2.50718C5.53058 2.43308 5.39089 2.38747 5.24841 2.3347C4.97207 2.23235 4.69293 2.19507 4.39216 2.19507C4.27485 2.19507 4.12336 2.20858 4.01434 2.25051C3.86521 2.30787 3.69474 2.24969 3.54001 2.30595C3.28164 2.3999 3.13403 2.64792 2.90552 2.74948C2.71061 2.83611 2.70326 3.19961 2.57904 3.35933C2.43977 3.53838 2.41066 3.89881 2.41066 4.11702C2.41066 4.3292 2.41066 4.54138 2.41066 4.75356C2.41066 4.98033 2.35556 4.76847 2.28335 4.655C2.24069 4.58796 2.26282 4.47149 2.26282 4.39422C2.26282 4.24726 2.37753 3.68341 2.61394 3.78848C2.68561 3.82034 2.68913 4.01996 2.7084 4.08417C2.76835 4.28401 2.83044 4.46328 2.96507 4.62626C3.25743 4.98016 3.85707 5.0225 4.2669 5.15192C4.70833 5.29131 5.09256 5.4837 5.38393 5.84596C5.69333 6.23061 6.06121 6.68605 6.48454 6.94656C7.09923 7.32483 8.0254 7.37714 8.7186 7.24224C9.01777 7.18403 9.48897 7.08966 9.5379 6.72274C9.56494 6.51993 9.48084 6.33471 9.35515 6.1786C9.12023 5.88686 8.3788 5.24732 8.17651 5.85417" stroke="white" stroke-width="3" stroke-linecap="round"/>
<path d="M12.0573 5.18893C12.005 5.11702 12.0226 5.02832 11.9588 4.95896C11.7267 4.70675 11.4704 4.5007 11.1374 4.4025C10.6695 4.26453 10.2081 4.37828 9.84585 4.70434C9.76352 4.77843 9.52183 4.91707 9.43312 4.76183C9.307 4.54113 9.0618 4.45964 9.3284 4.27929C9.67746 4.04317 9.88697 3.82728 9.97931 3.40251C10.024 3.197 10.1335 3.03463 10.3202 2.93434C10.7682 2.69363 11.1335 2.47765 11.659 2.4251C12.033 2.3877 12.1375 2.74052 12.2052 3.04522" stroke="white" stroke-width="3" stroke-linecap="round"/>
<path d="M11.6508 3.93225C11.6508 3.60812 11.554 3.12414 11.7165 2.83165C11.8039 2.67439 11.9084 2.57644 12.0019 2.45178C12.0525 2.38438 12.3323 2.20498 12.275 2.10476C12.2509 2.06255 12.1346 2.11231 12.1108 2.13761C12.0532 2.19852 12.1157 2.3546 12.1313 2.41687" stroke="white" stroke-width="3" stroke-linecap="round"/>
<path d="M13.0553 2.34302C13.2174 2.34302 13.6628 2.36585 13.7124 2.54425C13.7766 2.77534 13.9317 2.95358 14.0532 3.15615" stroke="white" stroke-width="3" stroke-linecap="round"/>
<path d="M14.1641 3.23006C14.289 3.21618 14.4184 2.87069 14.4598 3.11918" stroke="white" stroke-width="3" stroke-linecap="round"/>
<path d="M14.5337 3.71045C14.6493 3.78528 14.8689 4.06468 14.932 4.19094C14.9773 4.28147 14.9403 4.45941 14.9403 4.56054" stroke="white" stroke-width="3" stroke-linecap="round"/>
<path d="M14.2011 4.8562C13.9403 5.01667 13.8513 5.45231 13.8684 5.74326C13.8718 5.80122 14.1405 5.85414 14.2011 5.85414" stroke="white" stroke-width="3" stroke-linecap="round"/>
<path d="M14.4229 5.81738H14.5707" stroke="white" stroke-width="3" stroke-linecap="round"/>
<path d="M13.4249 6.18677C13.3926 6.36411 13.277 6.45592 13.277 6.64878C13.277 6.72832 13.4656 6.74118 13.5358 6.74118" stroke="white" stroke-width="3" stroke-linecap="round"/>
<path d="M12.5009 6.66748C12.3701 6.84178 12.39 7.03665 12.39 7.24037C12.39 7.4462 12.4601 7.45346 12.6118 7.55454" stroke="white" stroke-width="3" stroke-linecap="round"/>
<path d="M11.5029 7.4436C11.4672 7.67586 11.429 7.87298 11.429 8.10889C11.429 8.18093 11.4874 8.41527 11.5399 8.44154" stroke="white" stroke-width="3" stroke-linecap="round"/>
<path d="M10.542 8.62622C10.5185 8.86155 10.2833 9.10008 10.2833 9.32847" stroke="white" stroke-width="3" stroke-linecap="round"/>
<path d="M9.58096 9.2915C9.50315 9.36932 9.31786 9.52642 9.28528 9.62415" stroke="white" stroke-width="3" stroke-linecap="round"/>
<path d="M8.65696 10.1047C8.64888 10.1936 8.62 10.273 8.62 10.3635" stroke="white" stroke-width="3" stroke-linecap="round"/>
<path d="M9.54401 10.2896C9.72469 10.2227 9.80273 10.1776 9.80273 9.9939" stroke="white" stroke-width="3" stroke-linecap="round"/>
<path d="M8.65698 9.91998C8.47851 9.79729 8.15064 9.66989 7.93625 9.62224C7.7759 9.58661 7.5988 9.42826 7.47424 9.32861" stroke="white" stroke-width="3" stroke-linecap="round"/>
<path d="M3.03897 5.85427C2.83628 5.85427 2.49632 5.61431 2.41064 5.4477C2.23084 5.09808 1.88359 4.758 1.82748 4.3512C1.78212 4.0223 1.83296 3.81253 2.03282 3.56271C2.14091 3.4276 2.28749 3.31626 2.41064 3.1931C2.47101 3.13273 2.64549 3.05605 2.66936 3.0083" stroke="white" stroke-width="3" stroke-linecap="round"/>
<path d="M3.48251 4.15405C3.17633 4.30714 3.00203 4.97469 3.00203 5.30188C3.00203 5.52262 2.99637 5.74448 3.00203 5.96512C3.01408 6.43514 3.43991 7.07206 3.88908 7.22178" stroke="white" stroke-width="3" stroke-linecap="round"/>
<path d="M4.6283 7.18481C4.6283 7.60382 4.90986 7.9612 5.20324 8.20123C5.40297 8.36465 5.68112 8.45964 5.86442 8.62628C6.04704 8.79229 6.46829 8.71667 6.69809 8.77412" stroke="white" stroke-width="3" stroke-linecap="round"/>
<path d="M6.62415 9.25464C6.63268 9.39979 6.85422 9.5189 6.95679 9.58728" stroke="white" stroke-width="3" stroke-linecap="round"/>
<path d="M7.80688 10.0676C7.83771 10.1259 7.95402 10.3445 7.99169 10.3633" stroke="white" stroke-width="3" stroke-linecap="round"/>
<path d="M8.69391 10.696V10.733" stroke="white" stroke-width="3" stroke-linecap="round"/>
<path d="M8.69391 10.8069V10.8438" stroke="white" stroke-width="3" stroke-linecap="round"/>
<path fill-rule="evenodd" clip-rule="evenodd" d="M8.50018 2.41437C8.91509 1.73522 9.35439 1.19807 9.87945 0.802139C10.589 0.267368 11.4296 0 12.5397 0C13.7709 0 14.886 0.471252 15.693 1.23221C16.5008 1.99304 17 3.04513 17 4.20512C17 6.9598 15.1057 8.31987 12.5901 10.1254C11.4195 10.9657 10.1084 11.9066 8.79802 13.1421C8.63389 13.296 8.3672 13.296 8.20306 13.1421C6.89282 11.9068 5.58157 10.9649 4.41171 10.1247C1.89449 8.31956 0 6.95888 0 4.20502C0 3.04507 0.499851 1.99294 1.30699 1.23211C2.11399 0.471286 3.22911 3.39847e-05 4.46032 3.39847e-05C5.57036 3.39847e-05 6.41104 0.267413 7.12055 0.802173C7.64565 1.19892 8.0849 1.73594 8.49982 2.41441L8.50018 2.41437ZM10.403 1.41937C9.82564 1.8541 9.35439 2.52699 8.87549 3.42981C8.8359 3.50367 8.77278 3.56623 8.68783 3.60594C8.48172 3.70357 8.22924 3.62414 8.12569 3.42981C7.64683 2.52607 7.17472 1.8541 6.59905 1.41937C6.04535 1.00204 5.36953 0.793366 4.46068 0.793366C3.46181 0.793366 2.55617 1.17577 1.90231 1.793C1.24762 2.41036 0.842014 3.26323 0.842014 4.20499C0.842014 6.56863 2.59407 7.826 4.92118 9.49557C6.02786 10.2905 7.25904 11.1745 8.50039 12.3051C9.74174 11.1745 10.973 10.2907 12.0805 9.49635C14.4065 7.82621 16.1586 6.56781 16.1586 4.20509C16.1586 3.26337 15.7538 2.41036 15.0983 1.7931C14.4444 1.17587 13.5388 0.793468 12.5399 0.793468C11.6299 0.793468 10.9549 1.00214 10.4029 1.41947L10.403 1.41937Z" fill="white"/>
</svg>
