<svg width="18" height="19" viewBox="0 0 18 19" fill="none" xmlns="http://www.w3.org/2000/svg">
<path d="M11.6701 13.6112C10.462 14.4316 8.98448 14.9148 7.38778 14.9148C3.30799 14.9148 0 11.7605 0 7.87026C0 3.98 3.30799 0.825684 7.38778 0.825684C11.4676 0.825684 14.7756 3.98 14.7756 7.87026C14.7756 9.81547 13.9491 11.5766 12.6114 12.8514L17.8238 17.8217C18.0628 18.0496 18.0568 18.4152 17.8168 18.6438C17.5753 18.8741 17.191 18.8758 16.9547 18.6505L11.6693 13.6106L11.6701 13.6112ZM7.38778 14.0861C10.9877 14.0861 13.9064 11.303 13.9064 7.87026C13.9064 4.43753 10.9877 1.65446 7.38778 1.65446C3.78781 1.65446 0.86915 4.43753 0.86915 7.87026C0.86915 11.303 3.78781 14.0861 7.38778 14.0861Z" fill="#1B1A1A"/>
</svg>
